<?xml version="1.0" encoding="UTF-8" standalone="no"?>
<!-- Created with Inkscape (http://www.inkscape.org/) -->

<svg
   width="280mm"
   height="185mm"
   viewBox="0 0 280 185"
   version="1.1"
   id="svg1"
   inkscape:export-filename="domain.png"
   inkscape:export-xdpi="300"
   inkscape:export-ydpi="300"
   inkscape:version="1.3.1 (1:1.3.1+202311172155+91b66b0783)"
   sodipodi:docname="domain.svg"
   xmlns:inkscape="http://www.inkscape.org/namespaces/inkscape"
   xmlns:sodipodi="http://sodipodi.sourceforge.net/DTD/sodipodi-0.dtd"
   xmlns="http://www.w3.org/2000/svg"
   xmlns:svg="http://www.w3.org/2000/svg">
  <sodipodi:namedview
     id="namedview1"
     pagecolor="#ffffff"
     bordercolor="#000000"
     borderopacity="0.25"
     inkscape:showpageshadow="2"
     inkscape:pageopacity="0.0"
     inkscape:pagecheckerboard="0"
     inkscape:deskcolor="#d1d1d1"
     inkscape:document-units="mm"
     inkscape:zoom="0.80444024"
     inkscape:cx="565.61069"
     inkscape:cy="333.77246"
     inkscape:window-width="1920"
     inkscape:window-height="1013"
     inkscape:window-x="0"
     inkscape:window-y="0"
     inkscape:window-maximized="1"
     inkscape:current-layer="layer1" />
  <defs
     id="defs1" />
  <g
     inkscape:label="Layer 1"
     inkscape:groupmode="layer"
     id="layer1">
    <ellipse
       style="opacity:0.75;fill:none;fill-rule:evenodd;stroke:#73d2e5;stroke-width:2;stroke-dasharray:none;stroke-opacity:1"
       id="path1"
       cx="140.00499"
       cy="91.848602"
       rx="134.65523"
       ry="80.910324" />
    <circle
       style="opacity:1;fill:#000000;fill-opacity:1;fill-rule:evenodd;stroke:none;stroke-width:1.65985;stroke-dasharray:none;stroke-opacity:1"
       id="path2"
       cx="73.2033"
       cy="87.091988"
       r="1" />
    <circle
       style="fill:#000000;fill-opacity:1;fill-rule:evenodd;stroke:none;stroke-width:1.65985;stroke-dasharray:none;stroke-opacity:1"
       id="path2-4"
       cx="21.816284"
       cy="64.501968"
       r="1" />
    <circle
       style="fill:#000000;fill-opacity:1;fill-rule:evenodd;stroke:none;stroke-width:1.65985;stroke-dasharray:none;stroke-opacity:1"
       id="path2-4-6"
       cx="64.235413"
       cy="97.308334"
       r="1" />
    <circle
       style="fill:#000000;fill-opacity:1;fill-rule:evenodd;stroke:none;stroke-width:1.65985;stroke-dasharray:none;stroke-opacity:1"
       id="path2-4-4"
       cx="92.016663"
       cy="117.68125"
       r="1" />
    <circle
       style="fill:#000000;fill-opacity:1;fill-rule:evenodd;stroke:#000000;stroke-width:1.65985;stroke-dasharray:none;stroke-opacity:1"
       id="path2-4-47"
       cx="131.96875"
       cy="132.23334"
       r="1" />
    <circle
       style="fill:#000000;fill-opacity:1;fill-rule:evenodd;stroke:#000000;stroke-width:1.65985;stroke-dasharray:none;stroke-opacity:1"
       id="path2-4-0"
       cx="135.40834"
       cy="135.9375"
       r="1" />
    <circle
       style="fill:#000000;fill-opacity:1;fill-rule:evenodd;stroke:none;stroke-width:1.65985;stroke-dasharray:none;stroke-opacity:1"
       id="path2-4-1"
       cx="166.62917"
       cy="144.66875"
       r="1" />
    <circle
       style="fill:#000000;fill-opacity:1;fill-rule:evenodd;stroke:none;stroke-width:1.65985;stroke-dasharray:none;stroke-opacity:1"
       id="path2-4-06"
       cx="173.77292"
       cy="148.10834"
       r="1" />
    <circle
       style="fill:#000000;fill-opacity:1;fill-rule:evenodd;stroke:none;stroke-width:1.65985;stroke-dasharray:none;stroke-opacity:1"
       id="path2-4-66"
       cx="174.30208"
       cy="148.90208"
       r="1" />
    <circle
       style="fill:#000000;fill-opacity:1;fill-rule:evenodd;stroke:none;stroke-width:1.65985;stroke-dasharray:none;stroke-opacity:1"
       id="path2-4-04"
       cx="174.30208"
       cy="148.90208"
       r="1" />
    <circle
       style="fill:#000000;fill-opacity:1;fill-rule:evenodd;stroke:none;stroke-width:1.65985;stroke-dasharray:none;stroke-opacity:1"
       id="path2-4-7"
       cx="174.30208"
       cy="148.90208"
       r="1" />
    <circle
       style="fill:#000000;fill-opacity:1;fill-rule:evenodd;stroke:none;stroke-width:1.65985;stroke-dasharray:none;stroke-opacity:1"
       id="path2-4-2"
       cx="198.37917"
       cy="159.75"
       r="1" />
    <circle
       style="fill:#000000;fill-opacity:1;fill-rule:evenodd;stroke:none;stroke-width:1.65985;stroke-dasharray:none;stroke-opacity:1"
       id="path2-4-61"
       cx="187.49992"
       cy="76.048248"
       r="1" />
    <circle
       style="fill:#000000;fill-opacity:1;fill-rule:evenodd;stroke:none;stroke-width:1.65985;stroke-dasharray:none;stroke-opacity:1"
       id="path2-4-61-9"
       cx="135.9375"
       cy="44.65625"
       r="1" />
    <circle
       style="fill:#000000;fill-opacity:1;fill-rule:evenodd;stroke:none;stroke-width:1.65985;stroke-dasharray:none;stroke-opacity:1"
       id="path2-4-61-7"
       cx="95.456245"
       cy="27.193748"
       r="1" />
    <circle
       style="fill:#000000;fill-opacity:1;fill-rule:evenodd;stroke:none;stroke-width:1.65985;stroke-dasharray:none;stroke-opacity:1"
       id="path2-4-61-5"
       cx="128.26457"
       cy="26.929165"
       r="1" />
    <circle
       style="fill:#000000;fill-opacity:1;fill-rule:evenodd;stroke:none;stroke-width:1.65985;stroke-dasharray:none;stroke-opacity:1"
       id="path2-4-61-6"
       cx="107.89166"
       cy="45.979164"
       r="1" />
    <circle
       style="fill:#000000;fill-opacity:1;fill-rule:evenodd;stroke:none;stroke-width:1.65985;stroke-dasharray:none;stroke-opacity:1"
       id="path2-4-61-56"
       cx="50.212494"
       cy="73.231247"
       r="1" />
    <circle
       style="fill:#000000;fill-opacity:1;fill-rule:evenodd;stroke:none;stroke-width:1.65985;stroke-dasharray:none;stroke-opacity:1"
       id="path2-4-61-8"
       cx="34.866665"
       cy="99.424995"
       r="1" />
    <circle
       style="fill:#000000;fill-opacity:1;fill-rule:evenodd;stroke:none;stroke-width:1.65985;stroke-dasharray:none;stroke-opacity:1"
       id="path2-4-61-3"
       cx="51.006245"
       cy="121.91458"
       r="1" />
    <circle
       style="fill:#000000;fill-opacity:1;fill-rule:evenodd;stroke:none;stroke-width:1.65985;stroke-dasharray:none;stroke-opacity:1"
       id="path2-4-61-85"
       cx="84.079163"
       cy="140.17084"
       r="1" />
    <circle
       style="fill:#000000;fill-opacity:1;fill-rule:evenodd;stroke:none;stroke-width:1.65985;stroke-dasharray:none;stroke-opacity:1"
       id="path2-4-61-38"
       cx="110.53749"
       cy="160.54375"
       r="1" />
    <circle
       style="fill:#000000;fill-opacity:1;fill-rule:evenodd;stroke:none;stroke-width:1.65985;stroke-dasharray:none;stroke-opacity:1"
       id="path2-4-61-1"
       cx="151.54791"
       cy="162.925"
       r="1" />
    <circle
       style="fill:#000000;fill-opacity:1;fill-rule:evenodd;stroke:none;stroke-width:1.65985;stroke-dasharray:none;stroke-opacity:1"
       id="path2-4-61-4"
       cx="156.83957"
       cy="117.94583"
       r="1" />
    <circle
       style="fill:#000000;fill-opacity:1;fill-rule:evenodd;stroke:none;stroke-width:1.65985;stroke-dasharray:none;stroke-opacity:1"
       id="path2-4-61-30"
       cx="163.71875"
       cy="89.106247"
       r="1" />
    <circle
       style="fill:#000000;fill-opacity:1;fill-rule:evenodd;stroke:none;stroke-width:1.65985;stroke-dasharray:none;stroke-opacity:1"
       id="path2-4-61-47"
       cx="218.75208"
       cy="78.522919"
       r="1" />
    <circle
       style="fill:#000000;fill-opacity:1;fill-rule:evenodd;stroke:none;stroke-width:1.65985;stroke-dasharray:none;stroke-opacity:1"
       id="path2-4-61-75"
       cx="190.70624"
       cy="58.414581"
       r="1" />
    <circle
       style="fill:#000000;fill-opacity:1;fill-rule:evenodd;stroke:none;stroke-width:1.65985;stroke-dasharray:none;stroke-opacity:1"
       id="path2-4-61-17"
       cx="241.50624"
       cy="68.73333"
       r="1" />
    <circle
       style="fill:#000000;fill-opacity:1;fill-rule:evenodd;stroke:none;stroke-width:1.65985;stroke-dasharray:none;stroke-opacity:1"
       id="path2-4-61-41"
       cx="234.89166"
       cy="106.83333"
       r="1" />
    <circle
       style="fill:#000000;fill-opacity:1;fill-rule:evenodd;stroke:none;stroke-width:1.65985;stroke-dasharray:none;stroke-opacity:1"
       id="path2-4-61-753"
       cx="222.98541"
       cy="129.85208"
       r="1" />
    <circle
       style="fill:#000000;fill-opacity:1;fill-rule:evenodd;stroke:none;stroke-width:1.65985;stroke-dasharray:none;stroke-opacity:1"
       id="path2-5"
       cx="113.44791"
       cy="104.71667"
       r="1" />
    <circle
       style="fill:#000000;fill-opacity:1;fill-rule:evenodd;stroke:none;stroke-width:1.65985;stroke-dasharray:none;stroke-opacity:1"
       id="path2-5-2"
       cx="113.44791"
       cy="104.71667"
       r="1" />
    <circle
       style="fill:#000000;fill-opacity:1;fill-rule:evenodd;stroke:none;stroke-width:1.65985;stroke-dasharray:none;stroke-opacity:1"
       id="path2-5-7"
       cx="204.2"
       cy="120.0625"
       r="1" />
    <circle
       style="fill:#000000;fill-opacity:1;fill-rule:evenodd;stroke:none;stroke-width:1.65985;stroke-dasharray:none;stroke-opacity:1"
       id="path2-5-6"
       cx="155.94728"
       cy="51.111431"
       r="1" />
    <circle
       style="fill:#000000;fill-opacity:1;fill-rule:evenodd;stroke:none;stroke-width:1.65985;stroke-dasharray:none;stroke-opacity:1"
       id="path2-5-61"
       cx="114.14658"
       cy="145.39735"
       r="1" />
    <circle
       style="fill:#000000;fill-opacity:1;fill-rule:evenodd;stroke:#000000;stroke-width:1.65985;stroke-dasharray:none;stroke-opacity:1"
       id="path2-5-20"
       cx="72.7201"
       cy="46.340343"
       r="1" />
    <circle
       style="fill:#000000;fill-opacity:1;fill-rule:evenodd;stroke:none;stroke-width:1.65985;stroke-dasharray:none;stroke-opacity:1"
       id="path2-5-20-3"
       cx="136.46666"
       cy="88.04792"
       r="1" />
    <circle
       style="fill:#000000;fill-opacity:1;fill-rule:evenodd;stroke:none;stroke-width:1.65985;stroke-dasharray:none;stroke-opacity:1"
       id="path2-5-20-7"
       cx="213.19583"
       cy="115.03542"
       r="1" />
    <circle
       style="fill:#000000;fill-opacity:1;fill-rule:evenodd;stroke:none;stroke-width:1.65985;stroke-dasharray:none;stroke-opacity:1"
       id="path2-5-20-0"
       cx="177.51912"
       cy="32.697578"
       r="1" />
    <circle
       style="fill:#000000;fill-opacity:1;fill-rule:evenodd;stroke:none;stroke-width:1.65985;stroke-dasharray:none;stroke-opacity:1"
       id="path2-5-20-0-0"
       cx="257.11667"
       cy="83.550003"
       r="1" />
    <circle
       style="fill:#000000;fill-opacity:1;fill-rule:evenodd;stroke:none;stroke-width:1.65985;stroke-dasharray:none;stroke-opacity:1"
       id="path2-5-20-0-06"
       cx="217.13969"
       cy="52.859985"
       r="1" />
    <circle
       style="fill:#000000;fill-opacity:1;fill-rule:evenodd;stroke:none;stroke-width:1.65985;stroke-dasharray:none;stroke-opacity:1"
       id="path2-5-20-5"
       cx="106.30417"
       cy="69.527084"
       r="1" />
    <circle
       style="fill:#000000;fill-opacity:1;fill-rule:evenodd;stroke:none;stroke-width:1.65985;stroke-dasharray:none;stroke-opacity:1"
       id="path2-5-20-8"
       cx="194.14583"
       cy="109.74375"
       r="1" />
    <circle
       style="fill:#000000;fill-opacity:1;fill-rule:evenodd;stroke:none;stroke-width:1.65985;stroke-dasharray:none;stroke-opacity:1"
       id="path2-5-20-6"
       cx="194.14583"
       cy="109.74375"
       r="1" />
    <g
       inkscape:label=""
       transform="matrix(3.3007994,0,0,3.3007994,128.34672,119.07298)"
       id="g2">
      <g
         id="surface1"
         transform="matrix(0.352778,0,0,0.352778,-0.851914,-0.641086)">
        <g
           style="fill:#000000;fill-opacity:1"
           id="g5">
          <g
             id="use4"
             transform="translate(1.993,8.9110003)">
            <path
               style="stroke:none"
               d="M 2.625,-4.359375 C 1.390625,-4.0625 0.421875,-2.765625 0.421875,-1.5625 0.421875,-0.59375 1.0625,0.125 2,0.125 c 1.15625,0 1.984375,-1.578125 1.984375,-2.953125 0,-0.90625 -0.390625,-1.40625 -0.734375,-1.84375 C 2.890625,-5.125 2.296875,-5.875 2.296875,-6.3125 c 0,-0.21875 0.203125,-0.453125 0.546875,-0.453125 0.3125,0 0.5,0.125 0.71875,0.265625 0.203125,0.125 0.390625,0.25 0.546875,0.25 C 4.359375,-6.25 4.5,-6.484375 4.5,-6.65625 4.5,-6.875 4.34375,-6.890625 3.984375,-6.984375 3.46875,-7.09375 3.328125,-7.09375 3.171875,-7.09375 c -0.78125,0 -1.140625,0.4375 -1.140625,1.03125 0,0.546875 0.296875,1.09375 0.59375,1.703125 z m 0.125,0.21875 c 0.25,0.46875 0.546875,1 0.546875,1.71875 0,0.65625 -0.375,2.328125 -1.296875,2.328125 -0.546875,0 -0.96875,-0.421875 -0.96875,-1.1875 0,-0.625 0.375,-2.5 1.71875,-2.859375 z m 0,0"
               id="path6" />
          </g>
        </g>
        <g
           style="fill:#000000;fill-opacity:1"
           id="g6">
          <g
             id="use5"
             transform="translate(6.4200001,10.405)">
            <path
               style="stroke:none"
               d="m 2.328125,-4.4375 c 0,-0.1875 0,-0.1875 -0.203125,-0.1875 -0.453125,0.4375 -1.078125,0.4375 -1.359375,0.4375 v 0.25 c 0.15625,0 0.625,0 1,-0.1875 v 3.546875 c 0,0.234375 0,0.328125 -0.6875,0.328125 H 0.8125 V 0 c 0.125,0 0.984375,-0.03125 1.234375,-0.03125 0.21875,0 1.09375,0.03125 1.25,0.03125 V -0.25 H 3.03125 c -0.703125,0 -0.703125,-0.09375 -0.703125,-0.328125 z m 0,0"
               id="path7" />
          </g>
        </g>
      </g>
    </g>
    <g
       inkscape:label=""
       transform="matrix(3.3007994,0,0,3.3007994,137.9616,135.39047)"
       id="g10">
      <g
         id="g9"
         transform="matrix(0.352778,0,0,0.352778,-0.851914,-0.641086)">
        <g
           style="fill:#000000;fill-opacity:1"
           id="g4">
          <g
             id="g3"
             transform="translate(1.993,8.9110003)">
            <path
               style="stroke:none"
               d="M 2.625,-4.359375 C 1.390625,-4.0625 0.421875,-2.765625 0.421875,-1.5625 0.421875,-0.59375 1.0625,0.125 2,0.125 c 1.15625,0 1.984375,-1.578125 1.984375,-2.953125 0,-0.90625 -0.390625,-1.40625 -0.734375,-1.84375 C 2.890625,-5.125 2.296875,-5.875 2.296875,-6.3125 c 0,-0.21875 0.203125,-0.453125 0.546875,-0.453125 0.3125,0 0.5,0.125 0.71875,0.265625 0.203125,0.125 0.390625,0.25 0.546875,0.25 C 4.359375,-6.25 4.5,-6.484375 4.5,-6.65625 4.5,-6.875 4.34375,-6.890625 3.984375,-6.984375 3.46875,-7.09375 3.328125,-7.09375 3.171875,-7.09375 c -0.78125,0 -1.140625,0.4375 -1.140625,1.03125 0,0.546875 0.296875,1.09375 0.59375,1.703125 z m 0.125,0.21875 c 0.25,0.46875 0.546875,1 0.546875,1.71875 0,0.65625 -0.375,2.328125 -1.296875,2.328125 -0.546875,0 -0.96875,-0.421875 -0.96875,-1.1875 0,-0.625 0.375,-2.5 1.71875,-2.859375 z m 0,0"
               id="path3" />
          </g>
        </g>
        <g
           style="fill:#000000;fill-opacity:1"
           id="g8">
          <g
             id="g7"
             transform="translate(6.4200001,10.405)">
            <path
               style="stroke:none"
               d="M 3.515625,-1.265625 H 3.28125 c -0.015625,0.15625 -0.09375,0.5625 -0.1875,0.625 C 3.046875,-0.59375 2.515625,-0.59375 2.40625,-0.59375 H 1.125 c 0.734375,-0.640625 0.984375,-0.84375 1.390625,-1.171875 0.515625,-0.40625 1,-0.84375 1,-1.5 0,-0.84375 -0.734375,-1.359375 -1.625,-1.359375 -0.859375,0 -1.453125,0.609375 -1.453125,1.25 0,0.34375 0.296875,0.390625 0.375,0.390625 0.15625,0 0.359375,-0.125 0.359375,-0.375 0,-0.125 -0.046875,-0.375 -0.40625,-0.375 C 0.984375,-4.21875 1.453125,-4.375 1.78125,-4.375 c 0.703125,0 1.0625,0.546875 1.0625,1.109375 0,0.609375 -0.4375,1.078125 -0.65625,1.328125 L 0.515625,-0.265625 C 0.4375,-0.203125 0.4375,-0.1875 0.4375,0 h 2.875 z m 0,0"
               id="path4" />
          </g>
        </g>
      </g>
    </g>
    <g
       inkscape:label=""
       transform="matrix(3.2769504,0,0,3.2769504,61.518672,45.118832)"
       id="g16">
      <g
         id="g15"
         transform="matrix(0.352778,0,0,0.352778,-0.851914,-0.641086)">
        <g
           style="fill:#000000;fill-opacity:1"
           id="g12">
          <g
             id="g11"
             transform="translate(1.993,8.9110003)">
            <path
               style="stroke:none"
               d="M 2.625,-4.359375 C 1.390625,-4.0625 0.421875,-2.765625 0.421875,-1.5625 0.421875,-0.59375 1.0625,0.125 2,0.125 c 1.15625,0 1.984375,-1.578125 1.984375,-2.953125 0,-0.90625 -0.390625,-1.40625 -0.734375,-1.84375 C 2.890625,-5.125 2.296875,-5.875 2.296875,-6.3125 c 0,-0.21875 0.203125,-0.453125 0.546875,-0.453125 0.3125,0 0.5,0.125 0.71875,0.265625 0.203125,0.125 0.390625,0.25 0.546875,0.25 C 4.359375,-6.25 4.5,-6.484375 4.5,-6.65625 4.5,-6.875 4.34375,-6.890625 3.984375,-6.984375 3.46875,-7.09375 3.328125,-7.09375 3.171875,-7.09375 c -0.78125,0 -1.140625,0.4375 -1.140625,1.03125 0,0.546875 0.296875,1.09375 0.59375,1.703125 z m 0.125,0.21875 c 0.25,0.46875 0.546875,1 0.546875,1.71875 0,0.65625 -0.375,2.328125 -1.296875,2.328125 -0.546875,0 -0.96875,-0.421875 -0.96875,-1.1875 0,-0.625 0.375,-2.5 1.71875,-2.859375 z m 0,0"
               id="path10" />
          </g>
        </g>
        <g
           style="fill:#000000;fill-opacity:1"
           id="g14">
          <g
             id="g13"
             transform="translate(6.4200001,10.405)">
            <path
               style="stroke:none"
               d="m 0.84375,-0.4375 c -0.015625,0.09375 -0.0625,0.265625 -0.0625,0.28125 0,0.15625 0.125,0.21875 0.234375,0.21875 0.125,0 0.234375,-0.078125 0.28125,-0.140625 0.03125,-0.0625 0.078125,-0.296875 0.125,-0.4375 0.03125,-0.125 0.109375,-0.453125 0.140625,-0.625 0.046875,-0.15625 0.09375,-0.3125 0.125,-0.46875 0.078125,-0.28125 0.09375,-0.34375 0.296875,-0.625 C 2.171875,-2.515625 2.5,-2.875 3.03125,-2.875 c 0.390625,0 0.40625,0.359375 0.40625,0.484375 0,0.421875 -0.296875,1.1875 -0.40625,1.484375 -0.078125,0.203125 -0.109375,0.265625 -0.109375,0.375 0,0.375 0.296875,0.59375 0.65625,0.59375 0.703125,0 1,-0.953125 1,-1.0625 0,-0.09375 -0.078125,-0.09375 -0.109375,-0.09375 -0.09375,0 -0.09375,0.046875 -0.125,0.125 C 4.1875,-0.40625 3.875,-0.125 3.609375,-0.125 c -0.15625,0 -0.1875,-0.09375 -0.1875,-0.25 0,-0.15625 0.046875,-0.25 0.171875,-0.5625 0.078125,-0.21875 0.359375,-0.953125 0.359375,-1.34375 0,-0.671875 -0.53125,-0.796875 -0.90625,-0.796875 -0.578125,0 -0.96875,0.359375 -1.171875,0.640625 -0.046875,-0.484375 -0.453125,-0.640625 -0.75,-0.640625 -0.296875,0 -0.453125,0.21875 -0.546875,0.375 -0.15625,0.265625 -0.25,0.65625 -0.25,0.703125 0,0.078125 0.09375,0.078125 0.125,0.078125 0.09375,0 0.09375,-0.015625 0.140625,-0.203125 0.109375,-0.40625 0.25,-0.75 0.515625,-0.75 0.1875,0 0.234375,0.15625 0.234375,0.34375 0,0.125 -0.0625,0.390625 -0.125,0.578125 -0.046875,0.1875 -0.109375,0.46875 -0.140625,0.625 z m 0,0"
               id="path12" />
          </g>
        </g>
      </g>
    </g>
  </g>
</svg>
